<svg id="visual" viewBox="0 0 900 600" width="900" height="600" xmlns="http://www.w3.org/2000/svg" xmlns:xlink="http://www.w3.org/1999/xlink" version="1.1">
<path d="M0 400L16.7 398.8C33.3 397.7 66.7 395.3 100 398.5C133.3 401.7 166.7 410.3 200 420.2C233.3 430 266.7 441 300 443.8C333.3 446.7 366.7 441.3 400 431.8C433.3 422.3 466.7 408.7 500 402.3C533.3 396 566.7 397 600 396.5C633.3 396 666.7 394 700 402C733.3 410 766.7 428 800 436.7C833.3 445.3 866.7 444.7 883.3 444.3L900 444L900 601L883.3 601C866.7 601 833.3 601 800 601C766.7 601 733.3 601 700 601C666.7 601 633.3 601 600 601C566.7 601 533.3 601 500 601C466.7 601 433.3 601 400 601C366.7 601 333.3 601 300 601C266.7 601 233.3 601 200 601C166.7 601 133.3 601 100 601C66.7 601 33.3 601 16.7 601L0 601Z" fill="#047857"></path>
<path d="M0 487L16.7 486.5C33.3 486 66.7 485 100 485.2C133.3 485.3 166.7 486.7 200 484.2C233.3 481.7 266.7 475.3 300 469.2C333.3 463 366.7 457 400 451.7C433.3 446.3 466.7 441.7 500 446C533.3 450.3 566.7 463.7 600 469.7C633.3 475.7 666.7 474.3 700 475.2C733.3 476 766.7 479 800 478.3C833.3 477.7 866.7 473.3 883.3 471.2L900 469L900 601L883.3 601C866.7 601 833.3 601 800 601C766.7 601 733.3 601 700 601C666.7 601 633.3 601 600 601C566.7 601 533.3 601 500 601C466.7 601 433.3 601 400 601C366.7 601 333.3 601 300 601C266.7 601 233.3 601 200 601C166.7 601 133.3 601 100 601C66.7 601 33.3 601 16.7 601L0 601Z" fill="#00716b"></path>
<path d="M0 503L16.7 507.7C33.3 512.3 66.7 521.7 100 519.2C133.3 516.7 166.7 502.3 200 498.7C233.3 495 266.7 502 300 507.3C333.3 512.7 366.7 516.3 400 517.2C433.3 518 466.7 516 500 512.7C533.3 509.3 566.7 504.7 600 499.5C633.3 494.3 666.7 488.7 700 490.2C733.3 491.7 766.7 500.3 800 502.5C833.3 504.7 866.7 500.3 883.3 498.2L900 496L900 601L883.3 601C866.7 601 833.3 601 800 601C766.7 601 733.3 601 700 601C666.7 601 633.3 601 600 601C566.7 601 533.3 601 500 601C466.7 601 433.3 601 400 601C366.7 601 333.3 601 300 601C266.7 601 233.3 601 200 601C166.7 601 133.3 601 100 601C66.7 601 33.3 601 16.7 601L0 601Z" fill="#006873"></path>
<path d="M0 559L16.7 557.8C33.3 556.7 66.7 554.3 100 556.5C133.3 558.7 166.7 565.3 200 564.8C233.3 564.3 266.7 556.7 300 552.3C333.3 548 366.7 547 400 546.7C433.3 546.3 466.7 546.7 500 547.3C533.3 548 566.7 549 600 547.5C633.3 546 666.7 542 700 540.5C733.3 539 766.7 540 800 545.3C833.3 550.7 866.7 560.3 883.3 565.2L900 570L900 601L883.3 601C866.7 601 833.3 601 800 601C766.7 601 733.3 601 700 601C666.7 601 633.3 601 600 601C566.7 601 533.3 601 500 601C466.7 601 433.3 601 400 601C366.7 601 333.3 601 300 601C266.7 601 233.3 601 200 601C166.7 601 133.3 601 100 601C66.7 601 33.3 601 16.7 601L0 601Z" fill="#155e75"></path>
</svg>